<?xml version="1.0" standalone="no"?>
<!DOCTYPE svg PUBLIC "-//W3C//DTD SVG 20010904//EN"
 "http://www.w3.org/TR/2001/REC-SVG-20010904/DTD/svg10.dtd">
<svg version="1.0" xmlns="http://www.w3.org/2000/svg"
 width="610.000000pt" height="198.000000pt" viewBox="0 0 610.000000 198.000000"
 preserveAspectRatio="xMidYMid meet">

<g transform="translate(0.000000,198.000000) scale(0.100000,-0.100000)"
fill="#000000" stroke="none">
<path d="M5738 1724 c-3 -3 -37 -7 -74 -9 -38 -2 -125 -6 -194 -10 -138 -7
-154 -10 -144 -26 4 -8 1 -8 -12 -1 -20 10 -94 12 -94 3 0 -4 -42 -6 -92 -5
-51 0 -112 -1 -134 -4 -35 -3 -41 -7 -37 -23 6 -22 -9 -25 -25 -6 -15 17 -120
20 -245 7 -56 -6 -123 -12 -150 -12 -41 -1 -50 -4 -64 -29 -17 -29 -33 -38
-33 -19 0 6 4 10 10 10 5 0 7 7 3 15 -4 12 -18 15 -52 14 -53 -2 -68 -8 -51
-19 7 -4 9 -13 6 -19 -11 -17 -24 -13 -22 7 1 14 -9 18 -53 20 -74 4 -102 -3
-94 -26 6 -16 6 -16 -10 -1 -11 12 -34 17 -72 18 -54 0 -73 -12 -36 -24 11 -3
23 -15 26 -26 7 -21 32 -21 195 -3 25 3 66 5 92 4 26 0 56 4 66 9 13 7 23 6
32 -2 10 -10 11 -7 5 11 -6 22 -5 23 15 12 12 -7 33 -10 46 -7 13 2 24 0 24
-5 0 -6 16 -7 38 -3 20 3 56 6 79 5 30 -1 42 3 39 12 -1 7 -1 10 1 6 7 -11 41
-10 48 2 3 6 1 10 -5 10 -6 0 -8 5 -5 10 3 6 1 10 -6 10 -7 0 -9 3 -5 7 4 4
18 -5 31 -21 19 -22 30 -27 62 -24 22 2 37 8 36 14 -1 7 7 14 18 17 16 4 19 2
15 -10 -5 -13 4 -14 71 -8 43 3 109 7 146 7 55 0 67 3 63 14 -4 11 -1 12 12 6
9 -5 38 -10 64 -11 35 -1 49 3 57 16 6 10 11 12 11 6 0 -14 100 -19 100 -5 0
4 44 7 97 7 106 1 259 9 283 16 10 2 15 -3 15 -15 0 -11 6 -21 13 -24 6 -2 12
-13 12 -23 0 -11 5 -17 10 -14 6 3 10 2 10 -4 0 -5 -3 -12 -8 -15 -10 -6 -2
-96 9 -96 5 0 9 -5 9 -11 0 -5 -4 -8 -8 -5 -5 3 -7 -16 -4 -42 2 -26 8 -50 14
-53 7 -4 6 -9 -1 -13 -7 -5 -9 -29 -5 -69 7 -81 14 -202 13 -250 0 -21 4 -37
8 -34 4 3 8 -43 8 -102 0 -119 -9 -143 -63 -162 -29 -10 -44 -29 -23 -29 5 0
11 -7 15 -15 9 -25 -28 -18 -39 8 -11 24 -2 23 -180 12 -49 -3 -109 -6 -132
-5 -24 0 -43 -4 -43 -9 0 -5 -10 -7 -22 -3 -12 3 -19 1 -15 -4 3 -6 2 -16 -4
-24 -6 -10 -9 -11 -9 -2 0 6 -7 12 -15 12 -8 0 -15 5 -15 10 0 19 -18 10 -24
-12 -6 -21 -7 -21 -17 -5 -6 11 -22 17 -46 17 -29 0 -33 -3 -24 -14 9 -10 8
-16 -4 -26 -13 -11 -19 -9 -38 11 -19 21 -29 24 -69 21 -27 -2 -48 -8 -48 -13
0 -5 5 -9 11 -9 5 0 7 -4 4 -10 -7 -12 -26 -14 -24 -2 4 27 -3 31 -48 26 -27
-3 -65 -6 -85 -7 -21 -1 -38 -5 -38 -9 0 -4 -11 -3 -25 2 -19 7 -34 6 -58 -5
-18 -9 -23 -13 -13 -10 16 5 17 3 6 -10 -10 -12 -10 -15 0 -15 8 0 10 -3 7 -7
-4 -3 -18 6 -33 22 -23 25 -29 27 -72 20 -59 -9 -131 -15 -199 -15 -43 0 -53
-3 -53 -17 0 -16 -2 -16 -15 -2 -17 17 -79 14 -69 -3 4 -6 -3 -5 -14 1 -22 12
-117 9 -130 -3 -3 -4 0 -11 8 -16 11 -7 11 -10 2 -10 -7 0 -15 7 -18 15 -5 11
-21 15 -61 15 -45 0 -54 -3 -49 -15 5 -13 2 -14 -15 -4 -14 7 -38 8 -68 3 -25
-4 -65 -6 -89 -5 -23 2 -49 -2 -57 -9 -10 -8 -19 -8 -35 2 -18 11 -23 11 -33
-3 -9 -12 -16 -13 -28 -6 -9 6 -46 7 -95 2 -43 -4 -73 -10 -66 -12 14 -5 16
-23 3 -23 -5 0 -17 7 -25 16 -10 10 -26 14 -44 10 -15 -3 -79 -8 -142 -11 -63
-4 -133 -8 -155 -10 -22 -2 -89 -6 -150 -10 -111 -5 -183 -13 -198 -22 -4 -3
-3 -11 4 -19 7 -9 8 -14 1 -14 -6 0 -14 9 -17 20 -7 24 -1 24 -235 4 -96 -8
-195 -14 -220 -14 -48 0 -125 -31 -113 -45 5 -4 1 -6 -7 -3 -8 3 -14 12 -14
21 2 15 -8 16 -80 10 -44 -3 -88 -6 -97 -7 -9 0 -15 -6 -12 -13 3 -7 1 -13 -5
-13 -6 0 -18 -3 -26 -6 -12 -5 -15 -2 -10 10 6 15 -3 17 -67 15 -96 -1 -122
-7 -114 -26 4 -13 1 -12 -21 2 -24 15 -36 16 -123 5 -53 -6 -112 -12 -131 -13
-19 -2 -40 -6 -47 -10 -6 -4 -14 -3 -18 3 -6 9 -60 8 -69 -1 -3 -3 -26 -4 -53
-3 -26 1 -54 -3 -61 -9 -9 -7 -16 -7 -23 0 -7 7 -24 7 -47 2 -36 -8 -92 -11
-160 -10 -22 1 -31 -3 -26 -10 5 -8 1 -8 -13 -1 -11 6 -28 9 -39 6 -10 -2 -48
-6 -84 -7 -46 -2 -64 -6 -62 -15 2 -10 -3 -10 -17 -2 -19 10 -68 11 -86 1 -5
-2 -45 -6 -90 -7 -189 -5 -241 -7 -250 -12 -5 -3 -27 -5 -48 -3 -36 2 -38 1
-28 -18 10 -17 9 -20 -4 -15 -8 4 -15 11 -15 16 0 6 -36 9 -94 6 -107 -3 -120
3 -156 76 -22 47 -25 66 -10 66 17 0 11 39 -10 60 -24 24 -26 34 -4 26 15 -6
16 0 11 46 -4 28 -10 54 -14 57 -5 3 -14 17 -21 30 -13 22 -12 23 7 18 17 -4
21 -1 21 18 0 13 -7 25 -15 29 -20 7 -19 26 1 26 13 0 14 12 9 87 -4 49 -9 95
-12 103 -3 8 -5 34 -4 58 2 23 -1 42 -6 42 -15 0 -4 132 13 151 19 22 66 38
114 41 45 2 56 8 39 20 -10 7 -8 7 6 2 24 -10 56 -10 232 -1 223 11 288 21
279 42 -7 19 2 18 34 0 36 -21 180 -21 180 0 0 8 9 15 19 15 11 0 26 3 35 6 9
3 16 1 16 -4 0 -6 -8 -13 -17 -16 -21 -6 134 2 227 11 36 4 75 6 88 4 12 -1
22 3 22 9 0 7 5 8 16 2 18 -10 55 -4 65 11 4 5 14 5 27 -2 24 -13 92 -15 92
-3 0 5 7 17 15 28 15 19 16 19 13 -1 -3 -18 2 -20 47 -19 142 3 224 11 239 23
12 10 16 11 16 1 0 -9 15 -11 57 -7 32 4 89 7 127 8 80 2 122 12 118 28 -1 7
2 20 8 31 10 19 7 19 -72 14 -47 -3 -86 -10 -90 -17 -6 -9 -10 -9 -17 2 -5 8
-16 11 -29 7 -11 -4 -46 -7 -79 -7 -32 0 -77 -2 -101 -6 -35 -4 -42 -8 -37
-23 3 -10 1 -22 -6 -26 -7 -4 -10 -2 -7 7 3 8 -1 19 -8 26 -13 14 -74 18 -74
6 0 -5 -55 -9 -122 -11 -77 -1 -124 -6 -129 -13 -4 -6 -11 -9 -16 -6 -23 14
-63 15 -74 1 -9 -11 -14 -12 -19 -4 -11 18 -167 2 -175 -18 -3 -8 -1 -19 6
-22 7 -5 8 -10 1 -14 -13 -8 -26 29 -16 45 5 9 -5 10 -37 5 -24 -3 -91 -9
-149 -12 -58 -3 -123 -7 -145 -9 -22 -1 -52 -3 -67 -4 -21 -1 -26 -5 -21 -17
6 -15 4 -15 -18 -1 -17 11 -37 14 -67 10 -28 -4 -39 -9 -31 -14 10 -6 5 -11
-14 -18 -17 -7 -25 -15 -21 -22 4 -7 1 -10 -7 -7 -8 3 -16 13 -18 23 -2 13 1
16 14 11 11 -4 15 -2 13 6 -6 16 -34 22 -56 13 -9 -4 -35 -7 -57 -7 -22 0
-101 -4 -175 -9 -103 -7 -138 -13 -147 -25 -6 -9 -17 -13 -22 -9 -6 3 -19 4
-29 1 -21 -7 -87 -96 -71 -96 8 0 8 -4 1 -12 -8 -11 -9 -60 -3 -155 1 -16 6
-21 16 -17 17 7 21 -11 5 -21 -6 -4 -8 -50 -5 -123 6 -146 6 -142 22 -142 8 0
11 -5 8 -10 -4 -6 -11 -8 -17 -4 -5 3 -2 -8 6 -25 13 -25 14 -34 4 -51 -10
-15 -10 -22 0 -32 6 -6 12 -17 12 -22 0 -6 -5 -4 -10 4 -8 11 -10 0 -9 -40 1
-30 4 -59 7 -65 3 -5 5 -26 3 -46 -1 -20 3 -40 9 -44 8 -5 8 -10 2 -14 -14 -9
5 -51 23 -51 11 0 15 -6 11 -18 -10 -29 62 -64 132 -64 93 -1 127 6 126 24 -1
10 4 14 13 11 8 -3 12 -11 9 -18 -3 -9 4 -12 27 -9 71 10 75 12 71 41 -2 16
-1 22 2 16 3 -7 13 -13 21 -13 12 0 13 -3 4 -14 -9 -11 -6 -15 15 -20 30 -8
61 0 89 23 17 14 18 14 7 0 -11 -14 -4 -15 61 -12 65 4 103 8 117 12 3 1 -2 6
-10 11 -8 5 -10 10 -4 10 6 0 17 -7 24 -15 9 -11 16 -12 25 -5 8 7 15 7 19 1
8 -13 48 -2 64 17 6 9 12 11 12 5 0 -17 58 -27 75 -13 8 7 15 9 15 5 0 -4 7
-2 15 5 11 9 15 9 15 1 0 -8 25 -10 88 -6 48 3 94 8 102 10 15 4 157 13 301
19 82 4 99 9 99 32 0 8 5 14 11 14 6 0 9 -7 6 -15 -7 -18 9 -30 16 -13 4 10 7
10 15 0 11 -16 82 -6 82 10 0 7 5 7 13 0 15 -13 199 -4 191 9 -3 5 7 4 22 -1
15 -6 30 -7 33 -2 3 5 26 8 51 6 35 -2 48 3 64 19 14 17 18 18 13 5 -5 -15 0
-17 31 -16 20 1 41 6 45 12 6 8 10 8 13 0 5 -11 142 -9 174 3 8 3 53 6 100 8
212 6 221 7 215 23 -7 20 29 54 49 46 20 -8 20 -23 1 -30 -8 -4 -15 -11 -15
-16 0 -7 23 -8 68 -4 37 4 76 8 87 9 11 1 26 6 33 10 7 5 22 5 35 1 56 -18
207 2 207 28 0 12 17 10 32 -5 16 -15 78 -20 98 -7 13 9 13 11 0 20 -8 5 -10
10 -4 10 6 0 17 -7 24 -15 10 -12 27 -14 79 -10 110 10 202 16 271 18 46 1 64
6 62 15 -1 6 5 12 14 12 9 0 12 -5 8 -12 -5 -8 14 -9 77 -4 57 5 86 11 92 21
4 8 13 15 18 15 6 0 7 -4 4 -10 -8 -12 40 -24 62 -15 10 4 65 9 123 11 58 2
123 6 145 9 22 2 50 4 63 4 13 1 20 5 17 11 -8 13 1 13 26 -1 12 -6 28 -7 37
-3 9 3 59 8 111 9 65 2 96 7 102 16 7 11 11 11 17 2 6 -9 26 -10 82 -3 41 5
129 11 195 14 92 4 122 8 131 20 15 21 28 20 20 0 -9 -24 100 -13 119 13 13
17 14 17 15 1 0 -19 20 -26 20 -8 0 6 5 10 11 10 5 0 7 -5 4 -10 -3 -5 -2 -10
4 -10 5 0 12 4 15 9 3 5 23 7 45 4 21 -3 41 -1 45 5 3 6 20 7 38 3 50 -10 93
2 81 23 -3 6 2 4 13 -6 14 -12 32 -15 67 -12 26 2 52 6 57 9 11 7 1 35 -12 35
-6 0 -5 -6 2 -15 7 -9 8 -15 2 -15 -14 0 -23 28 -11 36 6 3 23 -6 38 -20 l27
-26 90 13 c95 14 138 31 131 50 -5 13 17 39 26 31 6 -6 27 53 27 77 0 10 -7
25 -16 33 -9 9 -11 16 -4 16 11 0 10 35 -6 240 -2 30 -6 102 -9 160 -2 58 -6
130 -9 160 -3 30 -8 89 -12 130 -7 85 -18 107 -43 88 -14 -12 -14 -11 -2 5 11
14 11 20 0 33 -20 25 -68 46 -97 43 -15 -2 -32 0 -38 4 -6 3 -14 4 -16 1z
m-114 -39 c-4 -8 -10 -13 -15 -10 -4 3 -6 12 -3 20 4 8 10 13 15 10 4 -3 6
-12 3 -20z m76 15 c0 -5 -4 -10 -10 -10 -5 0 -10 5 -10 10 0 6 5 10 10 10 6 0
10 -4 10 -10z m60 -15 c11 -13 10 -14 -4 -9 -9 3 -16 10 -16 15 0 13 6 11 20
-6z m-105 -5 c3 -5 1 -10 -4 -10 -6 0 -11 5 -11 10 0 6 2 10 4 10 3 0 8 -4 11
-10z m-255 -30 c0 -5 -7 -10 -15 -10 -8 0 -15 5 -15 10 0 6 7 10 15 10 8 0 15
-4 15 -10z m-530 -10 c0 -5 -4 -10 -10 -10 -5 0 -10 5 -10 10 0 6 5 10 10 10
6 0 10 -4 10 -10z m440 6 c0 -3 -4 -8 -10 -11 -5 -3 -10 -1 -10 4 0 6 5 11 10
11 6 0 10 -2 10 -4z m-1180 -66 c0 -5 -8 -10 -17 -10 -15 0 -16 2 -3 10 19 12
20 12 20 0z m-1980 -136 c0 -8 -4 -12 -10 -9 -5 3 -10 10 -10 16 0 5 5 9 10 9
6 0 10 -7 10 -16z m-243 -31 c-3 -3 -13 1 -21 10 -8 8 -12 17 -9 20 3 3 12 -1
20 -9 9 -8 13 -18 10 -21z m-847 -43 c0 -5 -5 -10 -11 -10 -5 0 -7 5 -4 10 3
6 8 10 11 10 2 0 4 -4 4 -10z m-660 -40 c0 -10 -39 -34 -46 -27 -3 2 -2 12 2
21 7 17 44 23 44 6z m-310 -160 c-6 -11 -13 -20 -16 -20 -2 0 0 9 6 20 6 11
13 20 16 20 2 0 0 -9 -6 -20z m4 -63 c-4 -12 -9 -13 -18 -4 -9 8 -10 15 -2 23
14 16 29 2 20 -19z m6 -57 c0 -5 -7 -7 -15 -4 -8 4 -12 10 -9 15 6 11 24 2 24
-11z m5687 -370 c3 -20 -11 -27 -21 -11 -7 11 4 44 12 36 3 -3 7 -14 9 -25z
m-1087 -60 c0 -5 -2 -10 -4 -10 -3 0 -8 5 -11 10 -3 6 -1 10 4 10 6 0 11 -4
11 -10z m218 -8 c2 -7 -3 -12 -12 -12 -9 0 -16 7 -16 16 0 17 22 14 28 -4z
m-468 -22 c0 -5 -5 -10 -11 -10 -5 0 -7 5 -4 10 3 6 8 10 11 10 2 0 4 -4 4
-10z m-360 -30 c8 -5 12 -12 9 -15 -8 -8 -39 5 -39 16 0 11 11 11 30 -1z
m-520 -14 c0 -3 -4 -8 -10 -11 -5 -3 -10 -1 -10 4 0 6 5 11 10 11 6 0 10 -2
10 -4z m-979 -92 c9 -11 8 -14 -4 -14 -8 0 -21 -2 -29 -5 -8 -3 -13 3 -13 18
0 26 25 27 46 1z m-844 -38 c-3 -8 -1 -17 6 -19 7 -2 9 -8 5 -12 -4 -4 -14 -2
-22 4 -12 10 -13 16 -3 26 16 18 20 18 14 1z m293 10 c0 -3 -4 -8 -10 -11 -5
-3 -10 -1 -10 4 0 6 5 11 10 11 6 0 10 -2 10 -4z m-405 -35 c-6 -5 -25 10 -25
20 0 5 6 4 14 -3 8 -7 12 -15 11 -17z m205 19 c0 -5 -4 -10 -10 -10 -5 0 -10
5 -10 10 0 6 5 10 10 10 6 0 10 -4 10 -10z m-598 -32 c-7 -7 -12 -8 -12 -2 0
14 12 26 19 19 2 -3 -1 -11 -7 -17z m83 12 c3 -5 -1 -10 -10 -10 -9 0 -13 5
-10 10 3 6 8 10 10 10 2 0 7 -4 10 -10z m58 -14 c4 -10 1 -13 -9 -9 -15 6 -19
23 -5 23 5 0 11 -7 14 -14z m-103 -6 c0 -5 -2 -10 -4 -10 -3 0 -8 5 -11 10 -3
6 -1 10 4 10 6 0 11 -4 11 -10z m-700 -30 c0 -5 -7 -10 -15 -10 -8 0 -15 5
-15 10 0 6 7 10 15 10 8 0 15 -4 15 -10z m354 -5 c-7 -16 -24 -21 -24 -6 0 8
7 13 27 20 1 1 0 -6 -3 -14z m86 5 c0 -5 -7 -10 -15 -10 -8 0 -15 5 -15 10 0
6 7 10 15 10 8 0 15 -4 15 -10z m-530 -10 c0 -5 -2 -10 -4 -10 -3 0 -8 5 -11
10 -3 6 -1 10 4 10 6 0 11 -4 11 -10z m380 6 c0 -3 -4 -8 -10 -11 -5 -3 -10
-1 -10 4 0 6 5 11 10 11 6 0 10 -2 10 -4z"/>
<path d="M3928 1595 c-3 -3 -52 -8 -109 -9 -132 -5 -170 -13 -162 -35 4 -9 3
-13 -2 -9 -4 4 -15 2 -23 -5 -9 -7 -13 -7 -9 -1 3 6 -1 20 -9 30 -14 18 -15
16 -10 -20 l5 -39 -25 23 c-18 18 -21 26 -12 32 8 4 -10 8 -41 8 l-54 0 23
-25 c16 -17 19 -25 9 -25 -12 0 -12 -2 0 -9 27 -17 271 2 271 21 0 7 4 7 14
-1 7 -6 28 -9 47 -7 19 2 40 4 47 5 7 0 11 5 7 10 -3 5 0 13 6 17 8 5 9 3 4
-6 -5 -9 -2 -10 13 -6 11 4 23 2 27 -4 3 -5 22 -10 42 -10 32 0 34 2 22 17
-12 15 -12 16 5 10 17 -7 18 -6 4 15 -15 22 -75 37 -90 23z m-93 -45 c3 -5 1
-10 -4 -10 -6 0 -11 5 -11 10 0 6 2 10 4 10 3 0 8 -4 11 -10z"/>
<path d="M4020 1593 c0 -5 4 -13 9 -18 5 -6 11 -19 13 -30 5 -19 5 -19 13 -1
5 10 4 26 -2 34 -11 18 -33 28 -33 15z"/>
<path d="M3283 1553 c-40 -3 -55 -9 -64 -24 -9 -17 -13 -18 -26 -7 -23 19
-101 21 -119 3 -13 -13 -13 -17 5 -36 19 -21 61 -20 61 2 0 6 7 17 15 25 13
14 15 13 13 -8 -3 -22 -1 -23 77 -22 186 4 226 9 237 28 7 12 7 17 0 12 -11
-7 -35 18 -25 27 3 4 -5 7 -18 7 -14 0 -30 -5 -37 -12 -9 -9 -12 -9 -12 0 0 7
-12 11 -27 10 -16 -1 -52 -3 -80 -5z m73 -42 c-4 -6 -12 -11 -18 -11 -7 0 -7
4 1 13 6 8 9 16 7 19 -1 3 1 2 7 -2 5 -5 6 -13 3 -19z"/>
<path d="M3195 1530 c3 -5 8 -10 11 -10 2 0 4 5 4 10 0 6 -5 10 -11 10 -5 0
-7 -4 -4 -10z"/>
<path d="M5693 1521 c-10 -15 -9 -20 2 -25 8 -3 15 -11 15 -18 0 -7 -14 1 -30
19 -26 28 -36 32 -79 31 -40 0 -50 -3 -54 -19 -4 -16 -2 -19 15 -13 12 3 18 2
15 -3 -6 -10 33 -33 57 -33 6 0 30 -27 51 -60 45 -69 78 -82 69 -27 -3 17 -6
40 -7 49 -1 9 -5 14 -9 12 -10 -7 -10 -1 2 30 6 17 6 26 0 26 -6 0 -8 11 -4
25 5 20 2 25 -13 25 -10 0 -24 -9 -30 -19z"/>
<path d="M2842 1523 c-29 -3 -40 -8 -35 -16 5 -9 3 -9 -8 -2 -13 9 -29 11 -67
6 -9 -1 -11 -8 -6 -23 l6 -23 -19 23 c-12 12 -32 22 -47 22 -23 0 -26 -3 -21
-20 8 -25 4 -25 -24 -1 -17 15 -32 18 -64 14 -50 -6 -69 -20 -47 -33 11 -7 12
-12 3 -21 -8 -8 -13 -3 -18 19 -6 31 -6 31 -63 25 -58 -5 -77 -12 -54 -20 6
-3 12 -10 12 -16 -1 -7 -9 -2 -19 11 -22 25 -66 29 -75 6 -3 -8 -9 -13 -14
-11 -11 8 -45 -20 -38 -32 10 -15 67 -24 79 -12 8 8 6 11 -7 11 -9 0 -14 5
-11 10 4 7 14 5 28 -5 26 -18 77 -20 77 -3 0 8 3 8 9 3 11 -11 164 -7 157 3
-2 4 24 6 57 5 34 -1 90 1 125 4 55 5 61 8 50 22 -8 10 -5 9 9 -3 19 -15 31
-17 70 -12 27 4 77 9 112 12 36 2 66 6 68 8 2 1 -6 15 -17 29 -17 22 -28 25
-75 25 -30 0 -52 -4 -50 -8 3 -4 -2 -11 -11 -14 -12 -4 -15 -2 -10 9 3 9 0 14
-7 13 -7 -1 -31 -3 -55 -5z m-142 -63 c0 -5 -4 -10 -10 -10 -5 0 -10 5 -10 10
0 6 5 10 10 10 6 0 10 -4 10 -10z"/>
<path d="M5358 1512 c-19 -4 -25 -22 -7 -22 5 0 7 -5 3 -12 -5 -8 -11 -5 -17
10 -14 30 -72 32 -64 2 6 -23 -11 -27 -19 -5 -8 20 -44 19 -44 0 0 -9 11 -21
25 -27 16 -7 26 -22 30 -42 4 -26 25 -285 29 -366 1 -19 6 -24 21 -22 19 3 18
2 -3 -18 -16 -16 -21 -28 -16 -43 13 -42 5 -101 -16 -119 -31 -26 -26 -48 13
-48 24 0 28 3 17 10 -9 6 -10 10 -3 10 6 0 15 -4 18 -10 12 -19 181 -7 202 14
4 3 1 17 -5 32 -9 18 -9 23 -1 18 9 -5 10 5 6 37 -4 24 -10 85 -13 134 -6 73
-11 94 -28 109 -17 15 -17 18 -3 13 12 -5 17 -1 17 13 0 11 -6 20 -12 20 -10
0 -9 3 1 9 11 7 12 29 6 107 -4 55 -12 105 -17 112 -7 8 -7 12 0 12 6 0 9 12
8 28 -2 15 -4 33 -5 40 -1 12 -69 14 -123 4z m-28 -45 c0 -2 -10 -12 -21 -23
-22 -19 -22 -19 -10 4 10 18 31 31 31 19z m77 -54 c-3 -3 -13 1 -21 10 -8 8
-12 17 -9 20 3 3 12 -1 20 -9 9 -8 13 -18 10 -21z m-95 -5 c-7 -7 -12 -8 -12
-2 0 14 12 26 19 19 2 -3 -1 -11 -7 -17z m118 -8 c0 -5 -5 -10 -11 -10 -5 0
-7 5 -4 10 3 6 8 10 11 10 2 0 4 -4 4 -10z m10 -30 c0 -5 -4 -10 -10 -10 -5 0
-10 5 -10 10 0 6 5 10 10 10 6 0 10 -4 10 -10z m-4 -35 c-28 -26 -46 -25 -46
0 0 7 12 16 28 18 15 2 31 5 36 6 5 0 -3 -10 -18 -24z m-96 -126 c0 -4 -11 -6
-25 -6 -13 0 -22 3 -20 8 6 9 45 8 45 -2z m52 -1 c-9 -9 -15 -9 -24 0 -9 9 -7
12 12 12 19 0 21 -3 12 -12z m-46 -37 c-10 -11 -13 -22 -8 -25 15 -9 21 -65 6
-59 -16 6 -22 22 -19 53 1 14 3 31 4 38 0 6 8 12 18 12 15 0 15 -2 -1 -19z
m50 -29 c16 -13 20 -22 14 -37 -5 -11 -9 -14 -9 -6 -1 10 -4 11 -14 2 -10 -8
-14 -7 -14 2 0 6 -3 22 -7 35 -9 26 1 28 30 4z m-43 -109 c-6 -14 -8 -14 -14
3 -12 30 -10 37 5 24 8 -6 12 -19 9 -27z m53 -34 c3 -6 1 -16 -5 -22 -8 -8
-11 -8 -11 1 0 7 -7 12 -16 12 -8 0 -12 5 -9 10 8 13 32 13 41 -1z m-86 -19
c0 -5 -5 -10 -11 -10 -5 0 -7 5 -4 10 3 6 8 10 11 10 2 0 4 -4 4 -10z m120
-51 c0 -5 5 -7 10 -4 6 3 10 2 10 -3 0 -6 -7 -13 -16 -16 -8 -3 -12 -2 -9 4 3
6 1 10 -4 10 -6 0 -11 5 -11 10 0 6 5 10 10 10 6 0 10 -5 10 -11z m-20 -39 c0
-11 -4 -20 -9 -20 -11 0 -22 26 -14 34 12 12 23 5 23 -14z"/>
<path d="M5025 1493 c-64 -5 -85 -12 -85 -28 0 -9 12 -18 29 -21 35 -7 57 -50
47 -91 -3 -16 -8 -40 -11 -56 -2 -15 -6 -31 -8 -35 -3 -4 -8 -37 -12 -75 -7
-73 1 -120 16 -96 13 21 11 52 -3 43 -7 -4 -8 -3 -4 5 4 6 12 9 17 5 7 -4 8 7
5 31 -4 26 -3 34 6 29 8 -5 9 -2 5 9 -3 9 -2 19 2 21 5 3 11 29 15 57 12 89
61 178 99 179 7 0 3 7 -7 15 -19 15 -29 15 -111 8z m-17 -38 c-3 -3 -9 2 -12
12 -6 14 -5 15 5 6 7 -7 10 -15 7 -18z"/>
<path d="M4750 1473 c-19 -2 -40 -11 -46 -19 -10 -13 -12 -13 -17 0 -4 10 -17
13 -49 9 -24 -2 -55 -4 -70 -4 -39 0 -44 -17 -14 -48 14 -15 39 -65 55 -112
41 -120 137 -372 149 -395 6 -10 18 -42 27 -71 21 -68 37 -81 71 -58 15 9 23
12 19 5 -6 -9 -3 -9 14 -1 16 9 21 9 21 -1 0 -7 8 -5 20 8 12 12 22 38 25 69
3 28 8 64 11 82 5 25 2 34 -14 44 -15 10 -18 17 -11 26 11 13 -5 78 -25 98 -6
6 -7 4 -3 -7 4 -12 2 -15 -9 -11 -7 3 -14 8 -15 12 0 3 -2 18 -4 34 -2 15 0
25 5 22 4 -3 3 9 -3 25 -7 17 -13 26 -15 20 -2 -5 -8 -7 -13 -4 -6 4 -6 11 1
19 7 9 9 23 4 37 -4 13 -8 28 -9 33 -1 9 -10 32 -32 85 -8 20 -4 42 13 61 35
39 7 52 -86 42z m28 -48 c-3 -3 -9 2 -12 12 -6 14 -5 15 5 6 7 -7 10 -15 7
-18z m-83 -25 c3 -5 1 -10 -6 -10 -8 0 -8 -4 1 -15 7 -9 10 -19 6 -22 -9 -9
-26 17 -26 40 0 19 15 23 25 7z m82 -69 c20 -16 21 -20 6 -19 -10 1 -28 -2
-40 -6 -14 -5 -23 -3 -23 3 0 6 5 11 11 11 6 0 9 7 5 15 -8 21 11 19 41 -4z
m-102 -42 c11 -16 1 -19 -13 -3 -7 8 -8 14 -3 14 5 0 13 -5 16 -11z m139 -4
c-4 -8 -1 -15 6 -15 6 0 8 -4 5 -10 -4 -6 -11 -5 -20 3 -9 8 -10 16 -3 25 14
16 19 15 12 -3z m-72 -37 c-7 -7 -12 -8 -12 -2 0 14 12 26 19 19 2 -3 -1 -11
-7 -17z m38 -8 c0 -5 -2 -10 -4 -10 -3 0 -8 5 -11 10 -3 6 -1 10 4 10 6 0 11
-4 11 -10z m25 -30 c3 -5 1 -10 -4 -10 -6 0 -11 5 -11 10 0 6 2 10 4 10 3 0 8
-4 11 -10z m-5 -54 c0 -2 -7 -7 -16 -10 -12 -4 -15 -2 -10 9 3 8 2 15 -3 15
-4 0 -8 7 -8 15 0 12 4 11 19 -4 10 -11 18 -22 18 -25z m-62 -11 c-3 -3 -9 2
-12 12 -6 14 -5 15 5 6 7 -7 10 -15 7 -18z m45 -32 c-6 -15 -4 -16 9 -5 13 10
18 9 29 -5 11 -12 11 -17 2 -20 -10 -4 -9 -8 2 -20 18 -17 19 -33 3 -33 -6 0
-9 3 -6 6 3 3 -7 19 -23 35 -30 30 -34 41 -22 52 11 11 13 8 6 -10z m87 -53
c0 -5 -5 -10 -11 -10 -5 0 -7 5 -4 10 3 6 8 10 11 10 2 0 4 -4 4 -10z m48 -8
c2 -7 -2 -10 -12 -6 -9 3 -16 11 -16 16 0 13 23 5 28 -10z m-37 -35 c-6 -8 -9
-22 -5 -31 3 -9 2 -16 -3 -16 -14 0 -15 53 -1 61 18 11 23 2 9 -14z m-107 -13
c3 -8 2 -12 -4 -9 -6 3 -10 10 -10 16 0 14 7 11 14 -7z"/>
<path d="M4348 1445 c-3 -3 -51 -7 -107 -9 -107 -4 -134 -13 -111 -41 7 -8 18
-15 25 -15 18 0 22 -16 30 -119 4 -50 11 -91 16 -91 4 0 4 -14 -1 -31 -5 -17
-7 -43 -4 -57 4 -25 11 -132 13 -195 1 -16 4 -26 9 -24 4 3 16 -5 27 -16 l20
-20 -22 12 c-31 16 -35 14 -28 -10 8 -25 -12 -69 -33 -69 -7 0 -12 -6 -9 -12
2 -7 12 -12 21 -12 9 1 16 -2 16 -6 0 -11 114 0 118 11 2 4 13 4 25 0 12 -4
31 -7 42 -5 115 17 124 22 78 43 -22 10 -28 10 -35 -3 -5 -9 -14 -16 -20 -16
-7 0 -5 7 4 18 18 21 22 76 8 150 -5 31 -12 116 -14 187 -3 72 -8 158 -11 192
-4 44 -2 70 8 90 8 15 12 34 10 41 -5 12 -64 17 -75 7z m-92 -72 c3 -23 1 -25
-12 -11 -8 8 -12 22 -8 32 8 22 17 13 20 -21z m49 -23 c-3 -5 1 -10 10 -10 9
0 24 -7 33 -17 13 -13 13 -15 2 -11 -8 3 -23 1 -34 -4 -12 -7 -22 -6 -29 1 -8
8 -7 11 2 11 7 0 11 6 8 14 -3 8 -3 17 0 20 10 10 15 7 8 -4z m-66 -59 c7 -5
9 -11 5 -14 -5 -3 -15 1 -22 9 -14 16 -5 18 17 5z m135 -2 c-3 -6 0 -15 7 -20
7 -4 10 -11 7 -15 -4 -3 -14 0 -22 8 -11 12 -12 18 -3 27 14 14 20 14 11 0z
m-67 -41 c-3 -8 -6 -5 -6 6 -1 11 2 17 5 13 3 -3 4 -12 1 -19z m73 -53 c7 -8
9 -15 6 -15 -4 0 -14 7 -22 15 -9 8 -11 15 -6 15 5 0 15 -7 22 -15z m-20 -39
c0 -2 -7 -7 -16 -10 -10 -4 -14 -2 -11 6 2 7 0 22 -6 33 -8 18 -7 18 12 -2 11
-12 21 -24 21 -27z m16 -47 c15 -16 16 -22 5 -29 -26 -15 -61 16 -45 41 8 14
19 11 40 -12z m-136 -33 c0 -2 -7 -6 -15 -10 -8 -3 -15 -1 -15 4 0 6 7 10 15
10 8 0 15 -2 15 -4z m160 -39 c0 -4 -6 -2 -14 5 -8 7 -12 17 -9 22 5 8 23 -12
23 -27z m-130 -12 c0 -12 -19 -12 -23 0 -4 9 -1 12 9 8 7 -3 14 -7 14 -8z
m-17 -105 c-7 -8 -22 24 -16 34 4 5 10 1 13 -10 4 -10 6 -21 3 -24z m77 -30
c0 -5 -7 -10 -15 -10 -8 0 -15 -5 -15 -11 0 -5 -4 -7 -10 -4 -6 4 -5 11 3 20
14 17 37 20 37 5z m44 -45 c-4 -8 -1 -15 6 -15 6 0 8 -5 4 -11 -5 -8 -10 -6
-16 5 -5 9 -6 21 -3 26 9 15 15 12 9 -5z m-64 -25 c0 -5 -5 -10 -11 -10 -5 0
-7 5 -4 10 3 6 8 10 11 10 2 0 4 -4 4 -10z m65 -61 c11 -16 1 -19 -13 -3 -7 8
-8 14 -3 14 5 0 13 -5 16 -11z"/>
<path d="M4340 1111 c0 -5 7 -11 14 -14 10 -4 13 -1 9 9 -6 15 -23 19 -23 5z"/>
<path d="M4436 1425 c4 -8 8 -15 10 -15 2 0 4 7 4 15 0 8 -4 15 -10 15 -5 0
-7 -7 -4 -15z"/>
<path d="M3950 1405 c-8 -15 -17 -22 -24 -17 -16 12 -90 32 -117 32 -22 -1
-23 -2 -7 -14 10 -7 15 -16 11 -19 -3 -4 9 -13 28 -21 41 -17 79 -49 79 -65 0
-7 4 -10 9 -6 6 3 13 -11 17 -32 4 -21 11 -46 16 -55 8 -17 9 -17 27 0 12 11
15 22 10 33 -5 9 -5 19 -2 23 4 4 6 26 5 49 -7 114 -24 145 -52 92z"/>
<path d="M3703 1413 c-13 -2 -23 -9 -23 -14 0 -5 -6 -9 -12 -7 -21 3 -58 -12
-58 -25 0 -7 -10 -17 -22 -22 -39 -17 -68 -82 -68 -151 0 -63 15 -124 31 -124
5 0 9 -8 9 -17 0 -15 1 -15 13 1 13 17 14 17 28 0 12 -16 12 -17 -3 -11 -12 4
-18 2 -18 -7 0 -18 26 -39 39 -32 13 8 41 -4 41 -18 0 -13 46 -38 99 -55 43
-14 42 -14 39 5 -2 10 3 19 10 21 7 3 10 -1 6 -11 -4 -10 -1 -16 7 -16 11 0
11 -2 1 -8 -17 -11 31 -34 53 -26 8 4 15 1 15 -5 0 -6 -5 -11 -12 -11 -7 0 -6
-6 4 -17 9 -10 13 -24 11 -30 -3 -7 0 -13 6 -13 6 0 11 -7 11 -17 0 -9 -2 -14
-5 -11 -3 3 -26 -15 -51 -39 -51 -50 -53 -78 -7 -67 37 9 55 31 43 55 -16 28
-12 31 11 10 12 -11 18 -24 15 -30 -5 -7 0 -8 11 -4 28 10 44 25 54 51 5 13
13 21 18 18 5 -3 19 15 31 41 24 51 28 129 10 177 -10 28 -11 28 -36 11 l-26
-17 18 32 19 32 -40 34 c-22 18 -46 32 -52 29 -7 -2 -13 0 -13 5 0 5 -12 13
-27 16 -16 4 -32 10 -38 14 -5 4 -35 15 -65 25 -67 21 -74 27 -94 70 -12 25
-14 40 -6 62 9 25 9 26 -4 9 -16 -19 -36 -14 -36 10 0 8 8 14 19 14 10 0 32 5
50 11 23 8 31 17 31 35 0 13 -3 23 -7 23 -5 -1 -18 -4 -30 -6z m-151 -215 c-7
-7 -12 -8 -12 -2 0 14 12 26 19 19 2 -3 -1 -11 -7 -17z m38 12 c0 -5 -5 -10
-11 -10 -5 0 -7 5 -4 10 3 6 8 10 11 10 2 0 4 -4 4 -10z m55 0 c-3 -5 -10 -10
-16 -10 -5 0 -9 5 -9 10 0 6 7 10 16 10 8 0 12 -4 9 -10z m65 -4 c0 -3 -4 -8
-10 -11 -5 -3 -10 -1 -10 4 0 6 5 11 10 11 6 0 10 -2 10 -4z m-105 -28 c-6
-17 59 -50 72 -37 7 7 12 5 16 -5 4 -10 1 -13 -8 -9 -9 3 -18 -4 -24 -18 -5
-13 -10 -18 -10 -10 -1 11 -4 11 -16 1 -13 -11 -15 -9 -15 13 0 26 -25 55 -37
43 -4 -4 -3 -10 3 -14 17 -11 24 -61 7 -55 -7 3 -13 8 -14 12 -6 44 -5 59 3
74 10 19 30 24 23 5z m143 -33 c-3 -3 -9 2 -12 12 -6 14 -5 15 5 6 7 -7 10
-15 7 -18z m202 -55 c0 -16 -30 -18 -45 -3 -20 19 -11 31 10 13 13 -11 14 -10
8 6 -6 17 -5 17 10 5 9 -7 17 -17 17 -21z m10 -53 c0 -4 -6 -2 -14 5 -8 7 -12
17 -9 22 5 8 23 -12 23 -27z m-10 -287 c0 -5 -5 -10 -11 -10 -5 0 -7 5 -4 10
3 6 8 10 11 10 2 0 4 -4 4 -10z"/>
<path d="M3280 1370 c-19 -4 -28 -8 -20 -9 12 -1 12 -3 1 -13 -11 -10 -14 -10
-18 0 -3 6 -10 12 -16 12 -7 -1 4 -15 24 -33 20 -18 40 -45 44 -62 5 -16 9
-33 10 -37 2 -5 3 -23 4 -40 1 -24 4 -29 10 -19 7 10 9 7 8 -12 -1 -14 -6 -23
-10 -20 -4 2 -6 -6 -3 -19 3 -12 8 -72 11 -132 3 -61 11 -116 17 -123 8 -9 7
-13 -2 -13 -7 0 -10 -8 -7 -20 3 -11 1 -23 -4 -26 -5 -3 -9 -14 -9 -24 0 -10
-15 -33 -32 -51 -18 -18 -32 -36 -31 -40 2 -5 -3 -6 -11 -3 -15 6 -30 -22 -16
-31 18 -11 75 25 104 66 20 29 29 54 30 85 0 24 4 44 7 44 4 0 2 19 -3 43 -5
23 -8 49 -8 57 4 58 1 114 -7 119 -12 9 -15 34 -3 26 9 -6 5 161 -5 193 -3 6
2 12 10 12 7 0 16 9 20 19 3 10 15 21 26 24 24 6 21 30 -4 35 -10 2 -17 -3
-17 -13 0 -15 -1 -15 -16 -1 -16 17 -28 18 -84 6z"/>
<path d="M2999 1355 c-3 -3 -48 -7 -100 -9 -69 -3 -96 -8 -105 -20 -6 -9 -14
-13 -17 -9 -4 3 -7 2 -7 -4 0 -6 9 -13 20 -16 23 -6 40 -44 40 -88 0 -22 4
-28 13 -23 8 6 8 3 -1 -9 -10 -12 -12 -30 -6 -69 4 -29 6 -65 5 -80 -1 -17 2
-28 9 -28 9 0 10 -4 2 -13 -6 -7 -9 -26 -6 -43 5 -26 7 -49 16 -169 2 -27 8
-39 16 -37 8 1 11 -2 7 -8 -9 -15 43 -63 61 -56 8 3 13 2 10 -2 -7 -11 50 -34
76 -30 17 2 22 9 20 22 -3 17 -2 18 12 7 9 -7 13 -17 10 -22 -7 -12 40 -22 66
-14 20 6 20 8 6 24 -9 10 -16 22 -16 28 0 6 -6 13 -14 16 -8 3 -20 31 -27 61
-6 30 -16 53 -21 50 -4 -3 -8 0 -8 5 0 6 5 11 10 11 7 0 9 19 5 53 -3 28 -5
67 -5 85 1 41 -18 112 -29 112 -15 0 -22 33 -11 44 8 8 9 6 5 -5 -4 -10 -1
-20 6 -25 7 -4 10 -3 5 4 -3 6 -2 13 4 17 10 6 6 67 -5 85 -3 5 -1 11 4 14 6
4 6 18 1 37 -11 39 -5 56 26 63 17 5 24 13 22 24 -2 12 -15 18 -48 20 -25 2
-48 0 -51 -3z m21 -29 c0 -7 -9 -16 -20 -19 -22 -6 -23 -5 -14 17 8 20 34 21
34 2z m-28 -78 c-7 -7 -12 -8 -12 -2 0 14 12 26 19 19 2 -3 -1 -11 -7 -17z
m38 -8 c0 -5 -2 -10 -4 -10 -3 0 -8 5 -11 10 -3 6 -1 10 4 10 6 0 11 -4 11
-10z m2 -59 c15 -18 15 -21 0 -33 -13 -11 -15 -11 -9 5 3 9 3 17 -2 17 -4 0
-8 7 -8 15 0 19 -1 19 19 -4z m-105 -107 c-3 -3 -12 -4 -19 -1 -8 3 -5 6 6 6
11 1 17 -2 13 -5z m33 -48 c0 -3 -4 -8 -10 -11 -5 -3 -10 -1 -10 4 0 6 5 11
10 11 6 0 10 -2 10 -4z m64 -22 c3 -8 2 -12 -4 -9 -6 3 -10 10 -10 16 0 14 7
11 14 -7z m-87 -48 c-3 -7 0 -19 6 -25 8 -8 8 -11 0 -11 -7 0 -15 5 -18 10 -7
12 0 40 11 40 3 0 4 -6 1 -14z m83 -66 c0 -5 -6 -10 -14 -10 -8 0 -16 -4 -18
-10 -2 -6 -8 -6 -18 0 -13 8 -12 10 3 10 9 0 17 5 17 10 0 6 7 10 15 10 8 0
15 -4 15 -10z m38 -44 c-7 -8 -15 -12 -17 -11 -5 6 10 25 20 25 5 0 4 -6 -3
-14z m-64 -31 c-4 -8 -8 -15 -10 -15 -2 0 -4 7 -4 15 0 8 4 15 10 15 5 0 7 -7
4 -15z m71 -56 c11 -16 1 -19 -13 -3 -7 8 -8 14 -3 14 5 0 13 -5 16 -11z m-27
-43 c-7 -8 -15 -12 -17 -11 -5 6 10 25 20 25 5 0 4 -6 -3 -14z m-2 -45 c0 -11
-4 -17 -8 -15 -4 3 -8 12 -8 20 0 8 4 14 8 14 4 0 8 -9 8 -19z"/>
<path d="M5636 1315 c-11 -9 -17 -22 -14 -33 7 -23 2 -31 -36 -60 -16 -12 -22
-22 -15 -22 11 0 11 -2 -1 -10 -13 -8 -9 -15 19 -41 18 -18 40 -47 47 -66 8
-18 21 -33 29 -33 17 0 20 16 5 25 -5 3 -10 11 -10 16 0 6 3 8 8 6 4 -3 8 8 9
24 2 21 -2 29 -14 29 -11 0 -13 3 -5 13 9 10 10 129 2 147 -1 3 -2 8 -1 13 1
10 -1 9 -23 -8z m24 -75 c0 -5 -2 -10 -4 -10 -3 0 -8 5 -11 10 -3 6 -1 10 4
10 6 0 11 -4 11 -10z m0 -61 c0 -14 -17 -10 -23 5 -4 10 -1 13 9 9 7 -3 14 -9
14 -14z m4 -64 c-4 -8 -11 -15 -16 -15 -6 0 -5 6 2 15 7 8 14 15 16 15 2 0 1
-7 -2 -15z"/>
<path d="M2406 1313 c-1 -2 -47 -5 -101 -8 -129 -8 -148 -22 -80 -61 12 -7 20
-23 21 -40 1 -16 2 -42 3 -57 0 -16 5 -26 11 -22 5 3 7 11 4 18 -2 7 3 21 11
32 16 19 16 19 5 -2 -7 -16 -7 -29 -1 -42 6 -10 7 -21 3 -25 -3 -4 0 -11 8
-16 11 -7 11 -10 2 -10 -7 0 -15 7 -18 15 -4 8 -10 15 -15 15 -10 0 -12 -53
-3 -63 4 -3 8 -44 9 -89 2 -46 6 -105 9 -133 3 -27 7 -75 9 -106 3 -31 7 -61
11 -67 3 -6 0 -12 -6 -15 -10 -3 -10 -7 1 -20 12 -15 11 -17 -2 -17 -9 0 -20
7 -25 16 -7 13 -10 13 -21 1 -18 -23 29 -30 141 -21 51 4 101 7 110 8 12 0 14
4 7 12 -6 7 -6 13 -1 16 17 6 -5 201 -23 214 -9 7 -12 15 -6 18 5 3 12 0 15
-6 3 -7 2 34 -1 92 -3 58 -10 108 -16 111 -5 4 -6 12 -2 19 12 20 6 163 -8
172 -8 5 -6 8 6 8 9 0 17 7 17 15 0 8 -5 15 -12 15 -6 0 -9 3 -6 6 4 3 16 0
28 -6 19 -10 21 -9 18 6 -2 14 -13 18 -51 19 -26 0 -49 -1 -51 -2z m-76 -97
c0 -11 -19 -15 -25 -6 -3 5 1 10 9 10 9 0 16 -2 16 -4z m-2 -73 c18 -17 26
-57 10 -47 -4 3 -6 10 -3 15 3 5 0 7 -7 4 -7 -3 -18 6 -25 20 -13 29 0 33 25
8z m-40 -86 c7 -8 7 -18 2 -27 -8 -13 -10 -12 -10 3 0 9 -4 17 -10 17 -5 0
-10 5 -10 10 0 14 16 12 28 -3z m51 -61 c8 -10 9 -16 1 -21 -5 -3 -10 -1 -10
4 0 6 -7 11 -16 11 -8 0 -12 5 -9 10 9 14 20 12 34 -4z m31 -30 c0 -3 -4 -8
-10 -11 -5 -3 -10 -1 -10 4 0 6 5 11 10 11 6 0 10 -2 10 -4z m20 -41 c13 -16
3 -20 -24 -9 -9 3 -13 10 -10 15 8 13 20 11 34 -6z m-29 -28 c-6 -8 -8 -17 -4
-20 3 -4 1 -7 -5 -7 -7 0 -12 2 -12 4 0 2 -3 11 -6 20 -4 12 0 16 16 16 18 0
20 -3 11 -13z m-21 -122 c0 -8 -9 -15 -20 -15 -11 0 -20 7 -20 15 0 8 9 15 20
15 11 0 20 -7 20 -15z m-9 -77 c24 -27 24 -28 -7 -28 -18 0 -25 4 -21 14 3 7
0 19 -6 25 -8 8 -8 11 2 11 8 0 22 -10 32 -22z m49 12 c0 -5 -5 -10 -11 -10
-5 0 -7 5 -4 10 3 6 8 10 11 10 2 0 4 -4 4 -10z m105 -71 c-10 -15 -25 -10
-19 6 4 8 10 12 15 9 5 -3 7 -10 4 -15z"/>
<path d="M2054 1291 c3 -4 -2 -15 -12 -24 -15 -14 -23 -14 -57 -3 -22 8 -54
17 -71 20 -29 7 -31 5 -27 -17 5 -23 57 -52 74 -41 5 3 6 -2 2 -12 -5 -13 -2
-15 18 -10 13 3 18 3 12 0 -19 -8 -16 -22 7 -29 11 -3 19 -9 18 -13 -4 -12 36
-102 45 -102 5 0 6 -4 2 -9 -7 -12 29 -33 39 -24 9 9 8 53 -1 53 -5 0 -8 45
-8 100 0 79 -3 103 -15 110 -19 12 -33 13 -26 1z"/>
<path d="M1766 1265 c-9 -9 -20 -14 -25 -10 -6 3 -13 -1 -18 -9 -4 -8 -12 -15
-18 -17 -26 -5 -42 -15 -63 -38 -31 -35 -53 -81 -45 -94 3 -5 2 -7 -4 -4 -6 4
-15 -11 -22 -33 -14 -49 -25 -196 -15 -212 4 -7 8 -26 10 -43 3 -47 58 -148
101 -184 56 -47 55 -46 92 -59 41 -15 44 -15 36 -2 -3 6 -2 10 4 10 5 0 11 -4
13 -8 2 -5 15 -12 31 -16 23 -5 27 -3 27 14 0 11 1 23 3 27 3 10 -43 11 -49 1
-3 -4 -13 -8 -22 -8 -15 1 -15 2 1 11 15 9 16 19 11 62 -4 29 -10 54 -13 57
-3 3 -7 43 -7 90 -3 169 -8 216 -27 234 -9 10 -17 22 -17 29 0 6 7 2 15 -9 13
-17 14 -11 15 67 0 66 4 90 15 99 9 7 13 20 10 28 -4 10 0 12 11 8 10 -4 14
-1 12 6 -7 20 -44 21 -62 3z m-42 -92 c7 -17 -1 -33 -15 -33 -6 0 -7 4 -4 10
3 5 1 19 -5 30 -8 16 -8 18 4 14 8 -3 17 -12 20 -21z m31 -70 c9 -24 -17 -35
-36 -15 -11 11 -13 21 -7 29 12 15 34 7 43 -14z m-145 -27 c0 -2 -7 -7 -16
-10 -8 -3 -12 -2 -9 4 6 10 25 14 25 6z m30 -57 c0 -14 -17 -10 -23 5 -4 10
-1 13 9 9 7 -3 14 -9 14 -14z m-14 -64 c-2 -7 1 -18 7 -24 6 -6 7 -11 1 -11
-13 0 -34 21 -34 35 0 7 7 12 15 12 9 0 14 -6 11 -12z m84 -64 c0 -5 6 -11 13
-14 6 -2 1 -2 -12 0 -13 2 -27 0 -30 -6 -4 -6 -12 -7 -21 -1 -13 8 -12 10 3
10 9 0 17 5 17 10 0 6 7 10 15 10 8 0 15 -4 15 -9z m-110 -31 c0 -5 -5 -10
-11 -10 -5 0 -7 5 -4 10 3 6 8 10 11 10 2 0 4 -4 4 -10z m150 -11 c-11 -8 -12
-12 -2 -16 14 -5 16 -23 3 -23 -12 0 -23 29 -15 41 3 5 11 9 17 9 7 0 6 -4 -3
-11z m-110 -21 c0 -6 -6 -5 -15 2 -8 7 -15 14 -15 16 0 2 7 1 15 -2 8 -4 15
-11 15 -16z m44 -13 c-4 -8 -8 -15 -10 -15 -2 0 -4 7 -4 15 0 8 4 15 10 15 5
0 7 -7 4 -15z m36 -11 c0 -8 -4 -12 -10 -9 -5 3 -10 10 -10 16 0 5 5 9 10 9 6
0 10 -7 10 -16z m40 -54 c0 -5 -5 -10 -11 -10 -5 0 -7 5 -4 10 3 6 8 10 11 10
2 0 4 -4 4 -10z m-36 -9 c7 -10 -3 -41 -13 -41 -3 0 -7 11 -7 25 -2 25 10 33
20 16z m21 -63 c22 -10 26 -17 21 -40 -3 -16 -1 -28 5 -28 6 0 7 -5 3 -11 -5
-8 -10 -6 -16 5 -5 9 -6 21 -2 28 4 7 3 8 -4 4 -13 -8 -52 23 -52 41 0 16 12
16 45 1z"/>
<path d="M1720 1111 c0 -6 4 -13 10 -16 6 -3 7 1 4 9 -7 18 -14 21 -14 7z"/>
<path d="M1715 670 c3 -5 8 -10 11 -10 2 0 4 5 4 10 0 6 -5 10 -11 10 -5 0 -7
-4 -4 -10z"/>
<path d="M1273 1232 c-30 -5 -29 -13 7 -45 17 -15 30 -37 30 -50 0 -13 6 -29
12 -35 10 -10 10 -15 -2 -22 -8 -5 -18 -6 -22 -4 -16 10 -19 -26 -4 -48 15
-21 16 -21 17 -3 1 11 1 26 0 33 -1 7 3 11 9 10 6 -2 26 24 45 57 18 33 41 61
49 63 9 2 16 10 16 18 0 8 7 14 15 14 8 0 15 4 15 10 0 9 -134 11 -187 2z
m111 -20 c2 -4 -4 -9 -15 -9 -11 -1 -17 2 -14 8 7 11 22 12 29 1z"/>
<path d="M1111 1213 c-6 -10 -11 -12 -11 -5 0 15 -80 17 -80 1 0 -7 -11 -8
-30 -4 -28 6 -44 -9 -19 -17 8 -3 7 -9 -3 -19 -13 -13 -13 -18 -2 -34 7 -10
11 -22 7 -28 -3 -5 1 -13 8 -18 9 -6 10 -9 2 -9 -32 0 -51 62 -29 98 2 4 0 14
-5 22 -7 13 -10 13 -18 1 -6 -9 -11 -10 -15 -2 -10 16 -36 13 -36 -4 0 -9 -6
-12 -15 -9 -11 5 -13 2 -9 -10 3 -8 14 -18 24 -21 9 -3 28 -25 41 -49 14 -27
28 -42 36 -39 13 5 15 0 17 -42 1 -14 8 -20 26 -20 17 0 26 -6 28 -20 3 -16 1
-18 -9 -7 -22 21 -30 13 -15 -16 22 -43 43 -57 61 -42 10 8 15 9 15 2 0 -6 -7
-15 -16 -20 -13 -7 -13 -13 -3 -35 7 -15 17 -27 22 -27 6 0 7 -3 4 -7 -4 -3 4
-21 18 -39 14 -18 25 -37 25 -43 0 -6 4 -11 9 -11 5 0 18 -22 30 -49 11 -28
25 -52 30 -55 20 -13 22 -58 4 -78 -17 -19 -17 -20 0 -33 23 -17 137 -9 153
11 13 16 28 19 19 4 -7 -11 126 -7 144 5 18 11 12 25 -14 35 -14 5 -25 14 -25
19 0 6 -10 20 -22 33 -13 13 -25 32 -26 43 -6 29 -29 58 -37 46 -3 -6 -2 -11
3 -11 6 0 12 -15 14 -33 3 -24 0 -33 -12 -33 -12 0 -15 13 -15 61 0 52 -2 60
-17 57 -19 -3 -23 8 -9 24 6 5 -29 75 -89 179 -99 169 -111 200 -88 223 15 15
1 31 -35 37 -18 4 -29 0 -36 -12z m22 -58 c-3 -9 -8 -14 -10 -11 -3 3 -2 9 2
15 9 16 15 13 8 -4z m-116 -10 c14 -10 24 -12 28 -5 3 5 12 10 18 10 7 0 4 -7
-5 -14 -10 -7 -18 -20 -18 -29 0 -8 -7 -18 -16 -21 -11 -4 -19 4 -30 29 -21
51 -16 58 23 30z m163 -69 c0 -2 -7 -6 -15 -10 -8 -3 -15 -1 -15 4 0 6 7 10
15 10 8 0 15 -2 15 -4z m30 -51 c0 -12 -19 -12 -23 0 -4 9 -1 12 9 8 7 -3 14
-7 14 -8z m-23 -72 c-4 -3 -1 -13 6 -21 10 -13 9 -14 -3 -10 -19 6 -26 38 -9
38 7 0 9 -3 6 -7z m-127 -23 c0 -5 -4 -10 -10 -10 -5 0 -10 5 -10 10 0 6 5 10
10 10 6 0 10 -4 10 -10z m210 -40 c0 -5 -6 -10 -14 -10 -8 0 -16 -4 -18 -10
-2 -6 -8 -6 -18 0 -13 8 -12 10 3 10 9 0 17 5 17 10 0 6 7 10 15 10 8 0 15 -4
15 -10z m43 -37 c-18 -7 -16 -23 3 -23 8 0 12 -5 8 -11 -4 -7 -11 -6 -21 4
-16 16 -10 38 10 36 9 0 9 -2 0 -6z m-67 -42 c0 -11 -4 -17 -8 -15 -4 3 -8 12
-8 20 0 8 4 14 8 14 4 0 8 -9 8 -19z m34 -7 c0 -8 -4 -12 -10 -9 -5 3 -10 10
-10 16 0 5 5 9 10 9 6 0 10 -7 10 -16z m40 -56 c0 -5 -7 -3 -15 6 -8 8 -15 18
-15 22 0 3 7 1 15 -6 8 -7 15 -17 15 -22z m-39 -1 c15 -20 15 -24 1 -37 -14
-13 -15 -12 -9 3 3 9 3 17 -2 17 -5 0 -11 9 -14 20 -7 26 4 25 24 -3z m29 -75
c21 -17 21 -19 5 -32 -15 -12 -19 -12 -31 5 -16 21 -18 45 -5 45 5 0 19 -8 31
-18z m-75 -12 c-3 -5 -12 -10 -18 -10 -7 0 -6 4 3 10 19 12 23 12 15 0z m99
-42 c-4 -34 -4 -34 -15 -14 -10 16 -2 32 17 36 0 0 0 -10 -2 -22z m80 3 c4 -5
3 -17 0 -26 -5 -13 -8 -14 -15 -3 -5 7 -9 19 -9 26 0 14 16 16 24 3z m-24 -29
c0 -10 -22 -32 -32 -32 -11 0 -6 23 7 32 13 10 25 10 25 0z m75 -33 c4 -6 5
-12 2 -15 -7 -7 -37 7 -37 17 0 13 27 11 35 -2z"/>
<path d="M683 1192 c-15 -2 -20 -8 -17 -20 5 -15 4 -15 -6 1 -7 11 -24 17 -45
17 -31 0 -35 -3 -35 -26 0 -23 4 -26 24 -22 15 3 27 0 30 -8 3 -8 12 -14 19
-14 8 0 22 -9 32 -20 10 -12 24 -19 30 -16 15 5 51 -22 40 -31 -4 -5 -10 -2
-12 5 -6 14 -23 16 -23 2 0 -6 11 -16 25 -22 18 -8 22 -14 14 -24 -7 -8 -7
-14 1 -19 24 -15 31 13 24 107 l-7 96 -36 -1 c-20 -1 -46 -3 -58 -5z m14 -37
c-15 -16 -19 -13 -11 9 3 9 10 13 15 10 5 -3 3 -11 -4 -19z"/>
<path d="M440 1173 c-8 -3 -19 -11 -23 -17 -6 -8 -10 -7 -14 2 -6 15 -43 16
-43 1 0 -8 -4 -8 -12 -1 -7 5 -24 9 -38 7 -14 -1 -32 -3 -41 -4 -30 -2 -30
-29 -1 -43 15 -8 28 -23 30 -36 2 -12 8 -19 14 -16 7 4 7 -2 2 -17 -10 -33 -6
-92 9 -116 5 -8 4 -13 -3 -13 -6 0 -8 -10 -5 -22 2 -13 7 -66 10 -118 3 -67 8
-94 16 -92 9 2 9 -1 0 -12 -9 -11 -11 -33 -6 -75 7 -65 -9 -125 -32 -116 -7 2
-13 -2 -13 -9 0 -15 63 -32 68 -18 1 4 44 7 96 5 107 -5 119 2 107 58 -4 19
-6 50 -3 69 3 25 0 37 -14 47 -10 7 -12 13 -6 13 10 0 11 30 6 128 -3 70 -10
132 -15 137 -4 6 -5 16 0 23 4 6 5 28 3 47 -3 27 -8 35 -21 33 -10 -3 -15 -12
-14 -26 2 -12 -1 -22 -5 -22 -17 0 -11 50 7 62 11 6 17 17 14 24 -2 6 1 15 7
19 9 6 9 10 -1 16 -8 5 -12 23 -11 48 3 39 1 41 -25 40 -15 0 -35 -3 -43 -6z
m1 -92 c-17 -11 -38 -4 -45 15 -4 12 -2 12 14 4 17 -9 19 -8 13 7 -6 17 -5 17
13 0 16 -15 17 -19 5 -26z m13 -27 c9 -24 7 -27 -9 -10 -17 17 -19 26 -6 26 5
0 12 -7 15 -16z m36 6 c0 -5 -5 -10 -11 -10 -5 0 -7 5 -4 10 3 6 8 10 11 10 2
0 4 -4 4 -10z m0 -140 c0 -5 -5 -10 -11 -10 -5 0 -7 5 -4 10 3 6 8 10 11 10 2
0 4 -4 4 -10z m-100 -30 c0 -5 -6 -10 -14 -10 -8 0 -16 -4 -18 -10 -2 -6 -8
-6 -18 0 -13 8 -12 10 3 10 9 0 17 5 17 10 0 6 7 10 15 10 8 0 15 -4 15 -10z
m45 -40 c-3 -5 -12 -10 -18 -10 -7 0 -6 4 3 10 19 12 23 12 15 0z m-65 -35
c-7 -9 -15 -13 -17 -11 -7 7 7 26 19 26 6 0 6 -6 -2 -15z m80 11 c0 -3 -4 -8
-10 -11 -5 -3 -10 -1 -10 4 0 6 5 11 10 11 6 0 10 -2 10 -4z m43 -51 c-3 -9
-8 -14 -10 -11 -3 3 -2 9 2 15 9 16 15 13 8 -4z m-80 -46 c4 -3 2 -11 -6 -18
-12 -9 -14 -7 -14 14 0 14 2 22 6 18 3 -4 10 -10 14 -14z m127 17 c0 -11 -19
-15 -25 -6 -3 5 1 10 9 10 9 0 16 -2 16 -4z m-15 -56 c-3 -5 -1 -10 6 -10 10
0 10 -3 2 -11 -17 -17 -37 -1 -22 17 13 16 23 19 14 4z m-121 -15 c-4 -8 -1
-15 5 -15 6 0 11 5 11 11 0 8 5 8 15 -1 12 -10 13 -16 3 -28 -11 -13 -10 -15
2 -10 11 4 16 0 16 -12 0 -10 -6 -16 -13 -13 -13 5 -17 17 -14 40 1 7 -5 10
-13 7 -16 -6 -30 11 -21 26 9 15 15 12 9 -5z m134 -64 c3 -8 -1 -12 -9 -9 -7
2 -15 10 -17 17 -3 8 1 12 9 9 7 -2 15 -10 17 -17z m-28 -21 c0 -5 -7 -10 -16
-10 -8 0 -12 5 -9 10 3 6 10 10 16 10 5 0 9 -4 9 -10z m-10 -50 c0 -5 -5 -10
-11 -10 -5 0 -7 5 -4 10 3 6 8 10 11 10 2 0 4 -4 4 -10z"/>
<path d="M5757 1015 c-12 -8 -14 -15 -7 -20 5 -3 7 -11 4 -17 -4 -7 -9 -6 -15
3 -5 9 -11 5 -21 -16 -16 -37 -61 -80 -99 -97 -16 -7 -29 -20 -29 -30 0 -14
11 -16 96 -13 53 2 99 7 102 10 11 11 5 77 -9 86 -10 6 -10 9 -1 9 7 0 12 14
12 38 0 50 -10 64 -33 47z m-17 -95 c0 -5 -5 -10 -11 -10 -5 0 -7 5 -4 10 3 6
8 10 11 10 2 0 4 -4 4 -10z m-53 -75 c-15 -16 -19 -13 -11 9 3 9 10 13 15 10
5 -3 3 -11 -4 -19z m93 5 c0 -5 -4 -10 -10 -10 -5 0 -10 5 -10 10 0 6 5 10 10
10 6 0 10 -4 10 -10z"/>
<path d="M674 982 c-5 -4 -16 -26 -22 -50 -7 -23 -22 -48 -32 -55 -20 -12 -29
-67 -12 -67 5 0 19 -10 32 -22 14 -13 26 -22 27 -20 2 1 6 2 11 2 4 0 2 -4 -5
-8 -8 -5 -7 -14 6 -31 26 -35 44 -19 36 33 -3 22 -7 79 -9 125 -4 83 -12 106
-32 93z"/>
<path d="M3551 916 c-14 -16 -12 -129 2 -138 8 -5 7 -10 -1 -20 -10 -13 -9
-36 5 -78 7 -24 22 10 19 43 -2 18 2 27 10 27 17 0 18 -12 4 -26 -8 -8 -6 -15
6 -25 16 -12 17 -12 11 4 -8 21 1 21 42 1 18 -9 50 -18 72 -21 33 -5 38 -3 34
10 -4 8 -26 27 -49 42 -24 15 -54 44 -67 65 -13 21 -27 36 -30 34 -4 -2 -10
16 -13 40 -7 46 -27 64 -45 42z m24 -106 c3 -6 -1 -7 -9 -4 -18 7 -21 14 -7
14 6 0 13 -4 16 -10z m64 -41 c-16 -10 -23 -4 -14 10 3 6 11 8 17 5 6 -4 5 -9
-3 -15z"/>
<path d="M2710 844 c-8 -8 -15 -26 -16 -40 -2 -14 -17 -47 -34 -73 -24 -38
-29 -53 -22 -72 5 -13 7 -30 5 -36 -3 -7 0 -13 5 -13 6 0 13 6 15 13 4 9 8 9
15 -2 6 -9 12 -10 16 -2 4 6 20 8 37 4 24 -4 28 -3 23 10 -3 9 -11 14 -18 11
-7 -3 -20 4 -31 15 -14 16 -15 24 -6 35 9 11 9 15 -1 20 -9 4 -9 5 2 5 38 -3
50 2 50 19 0 10 -3 22 -7 26 -4 4 -6 27 -4 51 3 47 -7 56 -29 29z m20 -98 c0
-11 -19 -15 -25 -6 -3 5 1 10 9 10 9 0 16 -2 16 -4z"/>
<path d="M2085 761 c-3 -6 -4 -11 0 -11 3 0 -5 -19 -17 -42 -13 -24 -23 -49
-23 -57 0 -8 -7 -16 -15 -18 -13 -4 -13 -3 0 7 23 18 -1 7 -42 -18 -35 -22
-57 -56 -44 -70 4 -3 12 0 18 6 7 7 20 12 29 12 31 0 128 107 121 133 -1 4 3
7 9 7 6 0 9 12 7 27 -3 28 -31 43 -43 24z"/>
<path d="M1056 725 c-3 -9 -2 -13 4 -10 6 3 10 2 10 -3 0 -6 -7 -12 -15 -16
-8 -3 -15 -15 -15 -26 0 -11 -4 -20 -8 -20 -4 0 -15 -12 -24 -27 -26 -43 -72
-93 -86 -93 -7 0 -12 -7 -12 -15 0 -12 14 -15 65 -15 61 0 65 2 66 23 l0 22 9
-22 c5 -13 14 -23 19 -23 20 0 41 13 41 26 0 14 -39 46 -50 39 -3 -2 -7 10 -8
28 -2 17 -4 33 -6 35 -2 2 7 14 20 27 27 27 31 57 10 74 -11 9 -15 8 -20 -4z
m-31 -166 c4 -6 5 -12 2 -15 -7 -7 -37 7 -37 17 0 13 27 11 35 -2z"/>
<path d="M2720 679 c0 -17 5 -29 11 -27 6 2 10 7 10 11 -1 4 -1 16 -1 27 0 11
-4 20 -10 20 -5 0 -10 -14 -10 -31z"/>
<path d="M786 685 c-3 -9 -3 -22 1 -27 3 -6 1 -8 -4 -5 -17 11 -37 -54 -21
-65 9 -6 5 -7 -9 -3 -14 4 -26 0 -35 -12 -17 -24 -63 -53 -83 -53 -20 0 -19
-12 3 -30 19 -16 102 -16 102 1 0 5 -4 9 -8 9 -5 0 -9 7 -9 15 0 8 8 15 18 15
11 0 16 -5 14 -12 -9 -24 11 -40 46 -36 28 2 33 7 30 23 -1 11 -6 58 -10 104
-6 80 -21 112 -35 76z"/>
<path d="M2570 630 c0 -25 45 -28 54 -4 3 8 2 12 -4 9 -6 -3 -10 -1 -10 4 0 6
-9 11 -20 11 -13 0 -20 -7 -20 -20z"/>
</g>
</svg>
